<svg xmlns="http://www.w3.org/2000/svg" id="Call_Aprrove" data-name="Call Aprrove" width="65.024" height="69.136" viewBox="0 0 65.024 69.136"><path id="Path_707" data-name="Path 707" d="M69.783,54.976c-5.1-2.259-10.983-5.236-16.142-7.517a2.059,2.059,0,0,0-2.339.523l-6.1,7.277a32.433,32.433,0,0,1-12.224-7.1A36.314,36.314,0,0,1,22.854,31.321l6.494-7.065a2.171,2.171,0,0,0,.333-2.443l-6.7-16.108-.066-.134a2.031,2.031,0,0,0-1.363-1.025,13.812,13.812,0,0,0-9.854,2.1c-7,5.577-6.73,17.966-3.517,27.119,3.966,11.293,12.094,21.975,22.889,30.077C41.2,71.444,53.88,77.495,64.2,70.223c3.935-2.771,6.356-7.425,6.812-13.057a2.131,2.131,0,0,0-1.232-2.189Zm-1.277,2.17a19.562,19.562,0,0,1-.375,2.346l-16.7-7.78,1.525-1.819c4.934,2.2,10.555,5.028,15.546,7.253ZM20.784,6.95l6.569,15.78-1.735,1.888L18.14,6.939A10.216,10.216,0,0,1,20.784,6.95ZM62.763,68.179c-7.446,5.243-17.6,3.11-30.2-6.342-10.4-7.808-18.227-18.074-22.031-28.905C7.606,24.587,7.206,13.414,13.251,8.6a7.38,7.38,0,0,1,2.387-1.152l8.119,19.2-2.872,3.124a2.115,2.115,0,0,0-.5,2.016,38.859,38.859,0,0,0,10.9,18.21,34.915,34.915,0,0,0,13.528,7.764,2.025,2.025,0,0,0,2.076-.613L49.772,53.7,67.43,61.924a13.162,13.162,0,0,1-4.667,6.254Z" transform="translate(-6.006 -4.361)" fill="#3cb29c"></path><path id="Path_708" data-name="Path 708" d="M37.554,30.347l-3.366-3.82a1.251,1.251,0,1,1,1.877-1.654l2.427,2.755,7.1-8.061a1.251,1.251,0,1,1,1.877,1.654l-8.041,9.125a1.252,1.252,0,0,1-1.877,0Z" transform="translate(0.979 -0.657)" fill="#3cb29c"></path><path id="Path_709" data-name="Path 709" d="M41.981,39.033a12.7,12.7,0,1,1,12.7-12.7,12.7,12.7,0,0,1-12.7,12.7Zm0-22.892a10.2,10.2,0,1,0,10.2,10.2,10.2,10.2,0,0,0-10.2-10.2Z" transform="translate(-0.172 -2.036)" fill="#3cb29c"></path></svg>