<svg xmlns="http://www.w3.org/2000/svg" width="53.425" height="69.094" viewBox="0 0 53.425 69.094"><path id="_004-customer" data-name="004-customer" d="M111.475,31.287a1.08,1.08,0,0,1-1.08,1.08H84.864a1.08,1.08,0,0,1,0-2.159H110.4A1.08,1.08,0,0,1,111.475,31.287Zm-26.611,7.6h15.805a1.08,1.08,0,0,0,0-2.159H84.864a1.08,1.08,0,0,0,0,2.159Zm-7.641-22.9a3.109,3.109,0,0,1-2.97,4.028H61.165a3.109,3.109,0,0,1-2.97-4.029,9.9,9.9,0,0,1,5.78-6.29,5.568,5.568,0,1,1,7.467,0,9.9,9.9,0,0,1,5.78,6.29ZM64.3,5.568a3.409,3.409,0,1,0,3.409-3.409A3.413,3.413,0,0,0,64.3,5.568ZM75.16,16.625a7.8,7.8,0,0,0-14.9,0,.95.95,0,0,0,.907,1.231H74.253a.95.95,0,0,0,.907-1.231Zm2.063,23.9a3.109,3.109,0,0,1-2.97,4.028H61.165a3.109,3.109,0,0,1-2.97-4.029,9.9,9.9,0,0,1,5.78-6.29,5.568,5.568,0,1,1,7.467,0,9.9,9.9,0,0,1,5.78,6.291ZM64.3,30.108A3.409,3.409,0,1,0,67.709,26.7,3.413,3.413,0,0,0,64.3,30.108ZM75.16,41.165a7.8,7.8,0,0,0-14.9,0,.95.95,0,0,0,.907,1.231H74.253a.95.95,0,0,0,.907-1.231Zm2.063,23.9a3.109,3.109,0,0,1-2.97,4.028H61.165a3.109,3.109,0,0,1-2.97-4.028,9.9,9.9,0,0,1,5.78-6.29,5.568,5.568,0,1,1,7.467,0A9.9,9.9,0,0,1,77.222,65.065ZM64.3,54.647a3.409,3.409,0,1,0,3.409-3.409A3.413,3.413,0,0,0,64.3,54.647ZM75.16,65.7a7.8,7.8,0,0,0-14.9,0,.95.95,0,0,0,.907,1.231H74.253a.95.95,0,0,0,.907-1.23Zm9.7-51.358h15.805a1.08,1.08,0,0,0,0-2.159H84.864a1.08,1.08,0,0,0,0,2.159Zm0-6.519H110.4a1.08,1.08,0,0,0,0-2.159H84.864a1.08,1.08,0,0,0,0,2.159ZM110.4,54.747H84.864a1.08,1.08,0,0,0,0,2.159H110.4a1.08,1.08,0,0,0,0-2.159Zm-9.726,6.519H84.864a1.08,1.08,0,1,0,0,2.159h15.805a1.08,1.08,0,1,0,0-2.159Z" transform="translate(-58.05)" fill="#3cb29c"></path></svg>