<svg id="Group_159" data-name="Group 159" xmlns="http://www.w3.org/2000/svg" xmlns:xlink="http://www.w3.org/1999/xlink" width="250" height="107.514" viewBox="0 0 250 107.514">
  <defs>
    <clipPath id="clip-path">
      <rect id="Rectangle_166" data-name="Rectangle 166" width="250" height="107.514" fill="none"/>
    </clipPath>
  </defs>
  <path id="Path_564" data-name="Path 564" d="M.946,137.372v1.054H4.381v10.13H5.5v-10.13H8.935v-1.054Z" transform="translate(-0.68 -98.798)" fill="#002b52"/>
  <path id="Path_565" data-name="Path 565" d="M41.121,137.372v11.184H40v-5.225H33.931v5.225H32.812V137.372h1.118v4.905H40v-4.905Z" transform="translate(-23.599 -98.797)" fill="#002b52"/>
  <path id="Path_566" data-name="Path 566" d="M75.782,147.5v1.054H69.231V137.372H75.7v1.055H70.35v3.962H75.3v1.054H70.35V147.5Z" transform="translate(-49.791 -98.797)" fill="#002b52"/>
  <g id="Group_160" data-name="Group 160">
    <g id="Group_159-2" data-name="Group 159" clip-path="url(#clip-path)">
      <path id="Path_567" data-name="Path 567" d="M406.961,337.087a5.354,5.354,0,0,1-5.293,5.613h-4.33V331.474h4.33a5.354,5.354,0,0,1,5.293,5.613m-1.091,0a4.274,4.274,0,0,0-4.2-4.555h-3.208v9.109h3.208a4.274,4.274,0,0,0,4.2-4.555" transform="translate(-285.764 -238.394)" fill="#002b52"/>
      <path id="Path_568" data-name="Path 568" d="M437.031,332.13a.77.77,0,1,1,.77.77.77.77,0,0,1-.77-.77m.241,2.47h1.059v8.019h-1.059Z" transform="translate(-314.311 -238.312)" fill="#002b52"/>
      <path id="Path_569" data-name="Path 569" d="M453.246,342.441v1.026a2.373,2.373,0,0,0-2.534,2.662v4.459h-1.058v-8.019h1.058V343.9a2.588,2.588,0,0,1,2.534-1.459" transform="translate(-323.389 -246.282)" fill="#002b52"/>
      <path id="Path_570" data-name="Path 570" d="M472.322,346.446c0,.16-.016.337-.032.5H465.25a3.015,3.015,0,0,0,3.191,2.646,2.835,2.835,0,0,0,2.582-1.363l.93.545a4.012,4.012,0,0,1-3.529,1.844,4.211,4.211,0,1,1,3.9-4.17m-7.073-.529h5.982a2.868,2.868,0,0,0-2.887-2.678,3,3,0,0,0-3.1,2.678" transform="translate(-333.821 -246.117)" fill="#002b52"/>
      <path id="Path_571" data-name="Path 571" d="M497.514,346.414a4.12,4.12,0,0,1,4.218-4.2,3.773,3.773,0,0,1,3.512,2.1l-.866.5a2.839,2.839,0,0,0-2.646-1.572,3.176,3.176,0,0,0,0,6.351,3.039,3.039,0,0,0,2.71-1.572l.882.513a3.988,3.988,0,0,1-3.592,2.085,4.12,4.12,0,0,1-4.218-4.2" transform="translate(-357.81 -246.117)" fill="#002b52"/>
      <path id="Path_572" data-name="Path 572" d="M530.64,338.174v4.859c0,1.379.754,1.267,2.31,1.2v.93c-2.165.321-3.368-.208-3.368-2.133v-4.859H527.9v-1.026h1.684v-1.925l1.059-.321v2.245h2.31v1.026Z" transform="translate(-379.661 -240.86)" fill="#002b52"/>
      <path id="Path_573" data-name="Path 573" d="M577.284,342.7h-1.123v-9.526l-3.929,6.575h-.16l-3.929-6.575V342.7H567.02V331.475h1.4l3.737,6.255,3.737-6.255h1.4Z" transform="translate(-407.798 -238.395)" fill="#002b52"/>
      <path id="Path_574" data-name="Path 574" d="M618.862,342.4v8.019H617.8v-1.572a3.719,3.719,0,0,1-3.24,1.764,4.2,4.2,0,0,1,0-8.4,3.719,3.719,0,0,1,3.24,1.764V342.4Zm-1.059,4.009a3.159,3.159,0,1,0-3.159,3.176,3.129,3.129,0,0,0,3.159-3.176" transform="translate(-439.015 -246.117)" fill="#002b52"/>
      <path id="Path_575" data-name="Path 575" d="M647.606,332.13a.77.77,0,1,1,.77.77.77.77,0,0,1-.77-.77m.241,2.47h1.059v8.019h-1.059Z" transform="translate(-465.755 -238.312)" fill="#002b52"/>
      <rect id="Rectangle_164" data-name="Rectangle 164" width="1.059" height="11.708" transform="translate(185.395 92.598)" fill="#002b52"/>
      <path id="Path_576" data-name="Path 576" d="M693.418,341.643V342.7h-6.576V331.475h6.5v1.059h-5.373v3.977h4.972v1.058h-4.972v4.074Z" transform="translate(-493.974 -238.395)" fill="#002b52"/>
      <path id="Path_577" data-name="Path 577" d="M719.956,350.916l-2.5-3.3-2.5,3.3h-1.267l3.144-4.154-2.935-3.865h1.267l2.293,3.031,2.294-3.031h1.267l-2.919,3.865,3.127,4.154Z" transform="translate(-513.279 -246.61)" fill="#002b52"/>
      <path id="Path_578" data-name="Path 578" d="M754.1,346.414a4.152,4.152,0,0,1-4.138,4.2,3.719,3.719,0,0,1-3.239-1.764v4.779h-1.059V342.4h1.059v1.572a3.719,3.719,0,0,1,3.239-1.764,4.152,4.152,0,0,1,4.138,4.2m-1.059,0a3.159,3.159,0,1,0-3.159,3.176,3.129,3.129,0,0,0,3.159-3.176" transform="translate(-536.282 -246.117)" fill="#002b52"/>
      <path id="Path_579" data-name="Path 579" d="M788.442,346.446c0,.16-.016.337-.032.5H781.37a3.015,3.015,0,0,0,3.191,2.646,2.835,2.835,0,0,0,2.582-1.363l.93.545a4.012,4.012,0,0,1-3.529,1.844,4.211,4.211,0,1,1,3.9-4.17m-7.073-.529h5.982a2.868,2.868,0,0,0-2.887-2.678,3,3,0,0,0-3.1,2.678" transform="translate(-561.173 -246.117)" fill="#002b52"/>
      <path id="Path_580" data-name="Path 580" d="M818.94,342.441v1.026a2.373,2.373,0,0,0-2.534,2.662v4.459h-1.058v-8.019h1.058V343.9a2.588,2.588,0,0,1,2.534-1.459" transform="translate(-586.394 -246.282)" fill="#002b52"/>
      <path id="Path_581" data-name="Path 581" d="M833.738,338.174v4.859c0,1.379.754,1.267,2.31,1.2v.93c-2.165.321-3.368-.208-3.368-2.133v-4.859h-1.684v-1.026h1.684v-1.925l1.059-.321v2.245h2.31v1.026Z" transform="translate(-597.648 -240.86)" fill="#002b52"/>
      <path id="Path_582" data-name="Path 582" d="M857.841,348.306c0,1.363-1.187,2.31-2.9,2.31a3.144,3.144,0,0,1-3.1-1.845l.9-.529a2.2,2.2,0,0,0,2.2,1.347c.946,0,1.844-.337,1.844-1.283,0-1.989-4.683-.85-4.683-3.8a2.483,2.483,0,0,1,2.743-2.293,2.968,2.968,0,0,1,2.806,1.636l-.882.513a1.962,1.962,0,0,0-1.924-1.123c-.834,0-1.684.4-1.684,1.267,0,1.989,4.683.85,4.683,3.8" transform="translate(-612.641 -246.117)" fill="#002b52"/>
      <path id="Path_583" data-name="Path 583" d="M878.4,331.029h-.558v1.6h-.391v-1.6h-.568v-.362H878.4Zm2.251-.362v1.957h-.391v-1.3l-.6.949h-.039l-.6-.949v1.3h-.391v-1.957h.391l.617.979.616-.979Z" transform="translate(-630.649 -237.814)" fill="#002b52"/>
      <path id="Path_584" data-name="Path 584" d="M41.578,206.27v18.017H37.766V206.27c0-5.139-2.945-7.853-7.045-7.853-4.446,0-8.027,2.714-8.027,9.875v16H18.883V206.27c0-5.139-2.656-7.853-6.756-7.853-4.158,0-8.316,2.714-8.316,9.875v16H0V195.414H3.812v4.215a9.952,9.952,0,0,1,8.835-4.908,9.237,9.237,0,0,1,8.778,5.255,10.6,10.6,0,0,1,9.354-5.255c6.352,0,10.8,4.331,10.8,11.549" transform="translate(-0.001 -140.042)" fill="#002b52"/>
      <path id="Path_585" data-name="Path 585" d="M194.48,195.414v28.873h-3.811v-5.659A13.393,13.393,0,0,1,179,224.979a15.131,15.131,0,0,1,0-30.258,13.393,13.393,0,0,1,11.665,6.352v-5.659Zm-3.811,14.436a11.376,11.376,0,1,0-11.376,11.434,11.266,11.266,0,0,0,11.376-11.434" transform="translate(-118.024 -140.042)" fill="#002b52"/>
      <path id="Path_586" data-name="Path 586" d="M293.869,158.42a2.772,2.772,0,1,1,2.772,2.772,2.772,2.772,0,0,1-2.772-2.772m.866,8.893h3.811v28.873h-3.811Z" transform="translate(-211.349 -111.941)" fill="#002b52"/>
      <rect id="Rectangle_165" data-name="Rectangle 165" width="3.811" height="42.154" transform="translate(94.127 42.09)" fill="#002b52"/>
      <path id="Path_587" data-name="Path 587" d="M405.2,197.188l-9.066,28.873h-6.121l-6.006-19.46-6.063,19.46h-6.121l-9.066-28.873h6.583l5.6,19.922,6.063-19.922h5.948l6.006,19.922,5.659-19.922Z" transform="translate(-260.894 -141.817)" fill="#dd0063"/>
      <path id="Path_588" data-name="Path 588" d="M516.378,209.7a15.245,15.245,0,1,1,15.245,15.187A15.072,15.072,0,0,1,516.378,209.7m24.253,0a9.009,9.009,0,1,0-9.008,9.124,8.868,8.868,0,0,0,9.008-9.124" transform="translate(-371.377 -139.894)" fill="#dd0063"/>
      <path id="Path_589" data-name="Path 589" d="M656.129,195.337v6.756c-4.1-.289-8.893,1.617-8.893,8.084v14.552H641V195.857h6.236v4.851c1.732-3.927,5.255-5.37,8.893-5.37" transform="translate(-461.004 -140.485)" fill="#dd0063"/>
      <path id="Path_590" data-name="Path 590" d="M725.292,196.481l-11.838-13.339v13.339h-6.236V156.059h6.236V180.37l11.2-12.761h7.622l-12.7,14.147,13.166,14.725Z" transform="translate(-508.628 -112.237)" fill="#dd0063"/>
      <path id="Path_591" data-name="Path 591" d="M818.073,216c0,5.774-5.024,8.893-11.26,8.893-5.775,0-9.932-2.6-11.78-6.756l5.37-3.118c.924,2.6,3.234,4.158,6.41,4.158,2.772,0,4.908-.924,4.908-3.234,0-5.139-15.533-2.252-15.533-12.588,0-5.428,4.677-8.835,10.567-8.835,4.735,0,8.662,2.194,10.683,6.006l-5.255,2.945a5.628,5.628,0,0,0-5.428-3.291c-2.252,0-4.215.982-4.215,3.06,0,5.255,15.534,2.079,15.534,12.762" transform="translate(-571.784 -139.894)" fill="#dd0063"/>
    </g>
  </g>
  <g id="Group_162" data-name="Group 162">
    <g id="Group_161" data-name="Group 161" clip-path="url(#clip-path)">
      <path id="Path_592" data-name="Path 592" d="M459.635,13.843,453.2,1.255a2.3,2.3,0,0,0-3.116-1L437.261,6.935a2.3,2.3,0,1,0,2.128,4.089l7.335-3.818L433.378,39.061l-39.58-8.41a2.612,2.612,0,1,0-1.086,5.11l41.7,8.86a2.61,2.61,0,0,0,2.952-1.546L451.793,8.627l3.739,7.314a2.3,2.3,0,1,0,4.1-2.1" transform="translate(-280.948 0)" fill="#dd0063"/>
      <path id="Path_593" data-name="Path 593" d="M397.881,77.211h3.124l-9.39-18,39.241-20.438a1.385,1.385,0,1,0-1.281-2.455L389.106,57.4a1.385,1.385,0,0,0-.587,1.868Z" transform="translate(-279.308 -26.008)" fill="#002b52"/>
      <path id="Path_594" data-name="Path 594" d="M631.826,90.453,620.418,69.214a1.385,1.385,0,0,0-2.455,1.282L628.73,90.507l-19.052,9.94h5.987l15.574-8.125a1.385,1.385,0,0,0,.587-1.868" transform="translate(-438.477 -49.243)" fill="#002b52"/>
    </g>
  </g>
</svg>
