<svg xmlns="http://www.w3.org/2000/svg" width="69.378" height="69.378" viewBox="0 0 69.378 69.378"><g id="_001-marketing" data-name="001-marketing" transform="translate(-1 -1)"><path id="Path_735" data-name="Path 735" d="M16.19,24.595a5.595,5.595,0,1,0-5.595,5.595A5.6,5.6,0,0,0,16.19,24.595Zm-5.595,3.357a3.357,3.357,0,1,1,3.357-3.357A3.361,3.361,0,0,1,10.595,27.952Z" transform="translate(0.476 2.142)" fill="#3cb29c"></path><path id="Path_736" data-name="Path 736" d="M70.378,34.57V14.428H54.161A25.717,25.717,0,0,0,43.3,7.752a3,3,0,0,0-1.327-1.56L33.48,1.476a3.787,3.787,0,0,0-5.624,3.31V7.825a25.721,25.721,0,0,0-10.994,6.959L18.5,16.31a23.508,23.508,0,0,1,9.357-6.137V12.88a3.785,3.785,0,0,0,5.624,3.309l8.49-4.715a3.007,3.007,0,0,0,1.257-1.4,23.441,23.441,0,0,1,7.666,4.35H43.522V34.57H59.067a23.306,23.306,0,0,1-4.22,11.344c-.047-.011-.09-.031-.137-.04V40.165a3.353,3.353,0,0,0-6.62-.758,41.473,41.473,0,0,1-17.934,4.115h-7.9A5.593,5.593,0,0,0,17.182,46.8a23.234,23.234,0,0,1-4.551-9.995h1.463l.536-1.478L16.054,36l4.275-4.275L19.662,30.3l1.48-.537V23.716l-1.478-.537.667-1.424-4.275-4.275-1.424.666-.538-1.479H8.049l-.536,1.478-1.424-.666L1.814,21.753l.667,1.424L1,23.715v6.044l1.478.537L1.811,31.72l4.275,4.275,1.424-.666.538,1.479h2.311A25.5,25.5,0,0,0,16.666,49.65v3.943a5.584,5.584,0,0,0,4.961,5.531l1.929,11.254h6.538V65.589l6.714-2.238V59.743A41.5,41.5,0,0,1,48.092,63.3a3.353,3.353,0,0,0,6.62-.756V56.837a5.576,5.576,0,0,0,2.2-9.965,25.511,25.511,0,0,0,4.4-12.3ZM40.882,9.518l-8.489,4.715a1.548,1.548,0,0,1-2.3-1.353V4.786a1.548,1.548,0,0,1,2.3-1.353l8.488,4.715a.784.784,0,0,1,0,1.37ZM9.282,33.649l-.237-.5L7.9,32.675,6.561,33.3,4.5,31.249l.627-1.341-.5-1.21-1.4-.508V25.282l.921-.335.5-.228.476-1.154L4.5,22.225,6.56,20.17,7.9,20.8l1.205-.5L9.617,18.9h2.907l.336.921.237.5,1.14.473,1.344-.629,2.057,2.056-.627,1.341.5,1.21,1.394.508v2.908l-.921.335-.5.228-.476,1.154.627,1.341L15.582,33.3l-1.344-.629-1.205.5-.508,1.394H9.617ZM48,41.917V60.794A43.738,43.738,0,0,0,30.157,56.95h-2.3V45.76h2.3A43.755,43.755,0,0,0,48,41.917ZM18.9,53.593V49.117a3.361,3.361,0,0,1,3.357-3.357h3.357V56.95H22.261A3.361,3.361,0,0,1,18.9,53.593ZM25.442,68.14l-1.534-8.952h3.948V68.14Zm9.128-6.4-4.476,1.493V59.188h.063a40.971,40.971,0,0,1,4.413.248Zm17.9.807a1.119,1.119,0,0,1-2.238,0V40.165a1.119,1.119,0,1,1,2.238,0Zm2.238-8.039V48.2a3.337,3.337,0,0,1,0,6.3Zm6.174-27.983,7.254-8.06v12.9Zm-2.2-.905H55.211l-8.057-8.952H66.748Zm-5.676.905L45.76,31.361v-12.9Zm2.037,1.333h3.8l6.714,4.476H48.337Z" transform="translate(0 0)" fill="#3cb29c"></path><path id="Path_737" data-name="Path 737" d="M30.595,28.19H28.357a1.12,1.12,0,0,1-1.119-1.119H25a3.361,3.361,0,0,0,3.357,3.357v2.238h2.238V30.428a3.357,3.357,0,0,0,0-6.714H28.357a1.119,1.119,0,1,1,0-2.238h2.238a1.12,1.12,0,0,1,1.119,1.119h2.238a3.361,3.361,0,0,0-3.357-3.357V17H28.357v2.238a3.357,3.357,0,1,0,0,6.714h2.238a1.119,1.119,0,1,1,0,2.238Z" transform="translate(2.856 1.904)" fill="#3cb29c"></path></g></svg>