<svg xmlns="http://www.w3.org/2000/svg" xmlns:xlink="http://www.w3.org/1999/xlink" id="Illustration_-_Mision_Control" data-name="Illustration - Mision Control" width="763.531" height="412.496" viewBox="0 0 763.531 412.496"><defs><clipPath id="clip-path"><rect id="Rectangle_106" data-name="Rectangle 106" width="763.531" height="412.496" fill="none"></rect></clipPath><clipPath id="clip-path-3"><rect id="Rectangle_79" data-name="Rectangle 79" width="11.959" height="30.034" fill="none"></rect></clipPath><clipPath id="clip-path-4"><rect id="Rectangle_80" data-name="Rectangle 80" width="11.801" height="30.046" fill="none"></rect></clipPath><clipPath id="clip-path-5"><rect id="Rectangle_81" data-name="Rectangle 81" width="23.47" height="91.345" fill="none"></rect></clipPath><clipPath id="clip-path-6"><rect id="Rectangle_82" data-name="Rectangle 82" width="5.01" height="49.155" fill="none"></rect></clipPath></defs><g id="Group_79" data-name="Group 79" clip-path="url(#clip-path)"><g id="Group_78" data-name="Group 78"><g id="Group_77" data-name="Group 77" clip-path="url(#clip-path)"><path id="Path_251" data-name="Path 251" d="M657.86,307.19A252.371,252.371,0,0,1,635.812,410.7l-462.864-.934A252.4,252.4,0,0,1,151.317,307.19c0-139.878,113.393-253.271,253.272-253.271S657.86,167.312,657.86,307.19" transform="translate(-17.647 -6.288)" fill="#f9f2e3"></path><path id="Path_252" data-name="Path 252" d="M671.3,452.715c0,6.221-119.97,11.263-267.96,11.263s-248.228-5.112-248.228-11.333,100.237-11.193,248.228-11.193,267.96,5.042,267.96,11.263" transform="translate(-18.089 -51.483)" fill="#225072"></path><path id="Path_254" data-name="Path 254" d="M250.355,414.766h335.5a9.717,9.717,0,0,0,9.717-9.717V194.193a9.717,9.717,0,0,0-9.717-9.717h-335.5a9.717,9.717,0,0,0-9.717,9.717V405.049a9.717,9.717,0,0,0,9.717,9.717" transform="translate(-28.063 -21.514)" fill="#010101"></path><rect id="Rectangle_42" data-name="Rectangle 42" width="321.694" height="194.658" transform="translate(229.194 177.811)" fill="#97d8e8"></rect><path id="Path_255" data-name="Path 255" d="M353.9,351.185l47.72,49.32H592.159V313.73l-72.1-73.32Z" transform="translate(-41.272 -28.037)" fill="#63bed6"></path><path id="Path_256" data-name="Path 256" d="M615.622,450.88H211.515a5.815,5.815,0,0,1-5.815-5.815V433.074H622.358v11.07a6.736,6.736,0,0,1-6.736,6.736" transform="translate(-23.989 -50.506)" fill="#b2b2b2"></path><rect id="Rectangle_62" data-name="Rectangle 62" width="166.164" height="110.776" transform="translate(312.625 212.372)" fill="#e72076"></rect><path id="Path_262" data-name="Path 262" d="M438.387,307.062,520.06,240.41H353.9Z" transform="translate(-41.272 -28.037)" fill="#b5095c"></path><path id="Path_263" data-name="Path 263" d="M441.686,298.082l57.473-46.9-.605-87.77H382.39l-.2,87.738Z" transform="translate(-44.571 -19.057)" fill="#fff"></path><g id="Group_174" data-name="Group 174" transform="translate(582.622 170.676)"><path id="Path_253" data-name="Path 253" d="M712.346,314.453l4.215,4.516,34.919-22.879,18.363,16.858,57.8-44.552,3.612,11.439,15.352-30.705-30.7,9.332,6.623,4.215L770.445,304.82l-17.761-17.459Z" transform="translate(-712.346 -249.129)" fill="#3fbdac"></path><rect id="Rectangle_64" data-name="Rectangle 64" width="10.011" height="41.813" transform="translate(131.158 88.611)" fill="#e72076"></rect><rect id="Rectangle_66" data-name="Rectangle 66" width="10.011" height="68.83" transform="translate(112.607 61.594)" fill="#e72076"></rect><rect id="Rectangle_68" data-name="Rectangle 68" width="10.011" height="83.627" transform="translate(93.173 46.798)" fill="#e72076"></rect><rect id="Rectangle_70" data-name="Rectangle 70" width="10.011" height="60.217" transform="translate(72.855 70.207)" fill="#e72076"></rect><rect id="Rectangle_72" data-name="Rectangle 72" width="10.011" height="25.324" transform="translate(52.538 105.101)" fill="#e72076"></rect></g><g id="Group_172" data-name="Group 172" transform="translate(137.019 52.659)"><path id="Path_266" data-name="Path 266" d="M205.907,118.319c0,3.433,3.817,6.216,8.525,6.216s8.525-2.784,8.525-6.216-3.816-6.216-8.525-6.216-8.525,2.783-8.525,6.216" transform="translate(-85.133 -87.949)" fill="#e72076"></path><path id="Path_267" data-name="Path 267" d="M202.5,91.6l.355,50.8-80.99-14.208v-24.51Z" transform="translate(-75.332 -85.557)" fill="#97d8e8"></path><rect id="Rectangle_73" data-name="Rectangle 73" width="4.617" height="62.874" transform="translate(124.681)" fill="#dbe5ed"></rect><rect id="Rectangle_74" data-name="Rectangle 74" width="38.008" height="40.85" transform="translate(55.414 10.478)" fill="#e72076"></rect><rect id="Rectangle_75" data-name="Rectangle 75" width="38.008" height="22.379" transform="translate(55.414 28.95)" fill="#b5095c"></rect><g id="Group_171" data-name="Group 171" transform="translate(0 25.632)"><rect id="Rectangle_76" data-name="Rectangle 76" width="41.035" height="22.339" transform="translate(8.507 36.259) rotate(-0.215)" fill="#69442d"></rect><path id="Path_268" data-name="Path 268" d="M120.923,177.241a15.2,15.2,0,0,1-2.866-4.07c-2.066-4.408-1.814-17.3-.9-22.069a15.275,15.275,0,0,1,2.365-5.418c2.043-2.321,5.776-4.789,9.73-7.4,3.912-2.587,7.958-5.261,10.492-7.938,2.753-2.909,4.034-7.245,5.062-10.73.662-2.241,1.345-4.559,2.12-5.01a5.582,5.582,0,0,1,7.1,1.148,6.626,6.626,0,0,1,1.361,1.972c1.053,2.6-.24,8.852-1.3,12.184-.66,2.068-3.162,8.189-3.187,8.251a.789.789,0,0,0,.072.734.769.769,0,0,0,.093.114.786.786,0,0,0,.556.239l9.082.133a2.447,2.447,0,0,1,.792.138,8.038,8.038,0,0,1,3,1.861,5.683,5.683,0,0,1,1.592,4.48c-.177,2.994-2.991,4.71-4.187,5.307a.427.427,0,0,0-.2.5,2.215,2.215,0,0,0,.641,1.017,5.322,5.322,0,0,1,.554,3.714,7.054,7.054,0,0,1-2.665,4.3.788.788,0,0,0-.155,1.137A6.583,6.583,0,0,1,161.4,165.9a5.831,5.831,0,0,1-2.579,4.508.791.791,0,0,0-.17,1.234.77.77,0,0,0,.091.079,2.485,2.485,0,0,1,.2.184c.559.574,1.8,2.242,1.207,5.315-.512,2.669-3.723,3.981-4.344,4.213a.052.052,0,0,1-.02,0c-1.868.07-23.248.82-29.533-.813a12.264,12.264,0,0,1-5.324-3.386" transform="translate(-74.703 -113.776)" fill="#69442d"></path><rect id="Rectangle_77" data-name="Rectangle 77" width="31.08" height="26.466" transform="translate(0 33.863) rotate(-0.214)" fill="#f9fdfe"></rect><rect id="Rectangle_78" data-name="Rectangle 78" width="23.795" height="26.466" transform="translate(0 33.863) rotate(-0.214)" fill="#012846"></rect><path id="Path_269" data-name="Path 269" d="M98.3,176.252a1.724,1.724,0,1,0,1.724-1.724,1.724,1.724,0,0,0-1.724,1.724" transform="translate(-72.584 -120.861)" fill="#0848ac"></path></g></g><g id="Group_173" data-name="Group 173" transform="translate(352.493 4.12)"><path id="Path_270" data-name="Path 270" d="M489.781,67.352S478.217,75.7,476.722,79.993c-2.642,7.583,4.2,31.844,4.2,31.844l18.012-17.965Z" transform="translate(-476.115 -7.855)" fill="#e72076"></path><g id="Group_67" data-name="Group 67" transform="translate(10.861 59.497)" opacity="0.06" style="mix-blend-mode: multiply;isolation: isolate"><g id="Group_66" data-name="Group 66"><g id="Group_65" data-name="Group 65" clip-path="url(#clip-path-3)"><path id="Path_271" data-name="Path 271" d="M491.215,67.352s-1.165.842-2.8,2.128a70.4,70.4,0,0,0,2.5,14.034,55.273,55.273,0,0,0,5.932,13.872l3.524-3.514Z" transform="translate(-488.41 -67.352)" fill="#1d1d1b"></path></g></g></g><path id="Path_272" data-name="Path 272" d="M537.257,67.157s11.652,8.228,13.192,12.5c2.722,7.555-3.865,31.886-3.865,31.886l-18.2-17.774Z" transform="translate(-482.211 -7.832)" fill="#e72076"></path><g id="Group_70" data-name="Group 70" transform="translate(46.172 59.325)" opacity="0.15" style="mix-blend-mode: multiply;isolation: isolate"><g id="Group_69" data-name="Group 69"><g id="Group_68" data-name="Group 68" clip-path="url(#clip-path-4)"><path id="Path_273" data-name="Path 273" d="M537.257,67.157s1.222.863,2.927,2.175a74.4,74.4,0,0,1-2.246,12.919A56.45,56.45,0,0,1,531.9,97.2l-3.512-3.43Z" transform="translate(-528.383 -67.157)" fill="#1d1d1b"></path></g></g></g><path id="Path_274" data-name="Path 274" d="M500.949,104.868c-1.219,11.206,6.284,24.72,12.065,24.69s12.174-11.866,12.115-23.137-5.415-20.481-11.2-20.451-11.551,5.722-12.984,18.9" transform="translate(-478.996 -10.026)" fill="#f8c301"></path><path id="Path_275" data-name="Path 275" d="M506.351,96.346c-.738-.12-8.374,4.089-5.749,17.206,3.128,15.631,12.6,21.66,12.6,21.66a39.732,39.732,0,0,0,12.618-21.792c2.859-13.438-4.4-17.447-4.69-17.26,0,0,5.874,7.7,2.087,18.871-1.535,4.531-2.754,5.7-2.754,5.7a10.966,10.966,0,0,0,.172-5.066,9.732,9.732,0,0,0-3.079-5.261s1.723,7.1-1.446,13.269a10.809,10.809,0,0,1-5.125,4.759,19.253,19.253,0,0,0,2-7.423c.375-6.2-2.235-7.846-3.488-7.41-2.753.959-.767,11.577-.767,11.577a17.493,17.493,0,0,1-5.329-8.73c-3.8-14.178,2.951-20.1,2.951-20.1" transform="translate(-478.907 -11.214)" fill="#f65900"></path><path id="Path_276" data-name="Path 276" d="M512.064,88.359A26.9,26.9,0,0,0,499.6,91.478c-6.5-8.775-10.853-24.19-10.946-41.76C488.509,22.328,511.6,0,511.6,0s23.323,22.081,23.468,49.471c.093,17.571-4.1,33.03-10.5,41.874a26.885,26.885,0,0,0-12.5-2.987" transform="translate(-477.577 0)" fill="#d6d6d6"></path><path id="Path_277" data-name="Path 277" d="M513.263,99.558a26.9,26.9,0,0,0-12.464,3.118q-.965-1.3-1.864-2.8s4.924-3.814,14.31-3.849c9.624-.037,14.35,3.7,14.35,3.7q-.882,1.5-1.835,2.817a26.885,26.885,0,0,0-12.5-2.987" transform="translate(-478.776 -11.199)" fill="#e72076"></path><path id="Path_278" data-name="Path 278" d="M498.665,18.872c.981-1.745,1.99-3.394,2.995-4.938A87.736,87.736,0,0,1,512.764,0a88.279,88.279,0,0,1,11.68,14.464c.876,1.341,1.753,2.758,2.61,4.245Z" transform="translate(-478.745 0)" fill="#e72076"></path><path id="Path_279" data-name="Path 279" d="M499.985,43.068a13.143,13.143,0,1,0,13.073-13.212,13.143,13.143,0,0,0-13.073,13.212" transform="translate(-478.899 -3.482)" fill="#004c76"></path><path id="Path_280" data-name="Path 280" d="M502.839,43.387A10.621,10.621,0,1,0,513.4,32.71a10.621,10.621,0,0,0-10.565,10.677" transform="translate(-479.232 -3.815)" fill="#3fbdac"></path><g id="Group_73" data-name="Group 73" transform="translate(34.02)" opacity="0.15" style="mix-blend-mode: multiply;isolation: isolate"><g id="Group_72" data-name="Group 72"><g id="Group_71" data-name="Group 71" clip-path="url(#clip-path-5)"><path id="Path_281" data-name="Path 281" d="M515.093,88.359,514.626,0s23.323,22.081,23.468,49.471c.093,17.571-4.1,33.03-10.5,41.874a26.885,26.885,0,0,0-12.5-2.987" transform="translate(-514.626 0)" fill="#1d1d1b"></path></g></g></g><path id="Path_282" data-name="Path 282" d="M514.2,61.945c1.645-.009,4.5,7.967,4.809,10.939,1.349,13.15-4.549,38.217-4.549,38.217s-6.172-26.922-4.592-39.082c.353-2.718,2.87-10.065,4.332-10.073" transform="translate(-480.021 -7.224)" fill="#e72076"></path><g id="Group_76" data-name="Group 76" transform="translate(34.179 54.721)" opacity="0.15" style="mix-blend-mode: multiply;isolation: isolate"><g id="Group_75" data-name="Group 75"><g id="Group_74" data-name="Group 74" clip-path="url(#clip-path-6)"><path id="Path_283" data-name="Path 283" d="M514.806,61.945c1.645-.009,4.5,7.967,4.809,10.939,1.349,13.15-4.549,38.217-4.549,38.217Z" transform="translate(-514.806 -61.945)" fill="#1d1d1b"></path></g></g></g></g><rect id="Rectangle_83" data-name="Rectangle 83" width="129.062" height="86.041" transform="translate(52.649 214.614)" fill="#3fbdac"></rect><path id="Path_291" data-name="Path 291" d="M686.456,86.785l63.437-51.77H620.832v7.291Z" transform="translate(-568.182 179.6)" fill="#2f9684"></path><path id="Path_292" data-name="Path 292" d="M686.456,86.785l63.437-51.77H620.832Z" transform="translate(-568.182 179.6)" fill="#52dbc4"></path><rect id="Rectangle_99" data-name="Rectangle 99" width="87.013" height="42.402" transform="translate(351.806 160.253)" fill="#52dbc4"></rect><rect id="Rectangle_177" data-name="Rectangle 177" width="87.013" height="28.811" transform="translate(351.806 207.078)" fill="#022846"></rect><rect id="Rectangle_100" data-name="Rectangle 100" width="77.296" height="4.239" transform="translate(356.223 166.437)" fill="#e8e8e8"></rect><rect id="Rectangle_101" data-name="Rectangle 101" width="77.296" height="4.239" transform="translate(356.223 178.77)" fill="#e8e8e8"></rect><rect id="Rectangle_102" data-name="Rectangle 102" width="38.489" height="4.239" transform="translate(356.223 191.104)" fill="#e8e8e8"></rect><path id="Path_295" data-name="Path 295" d="M832.19,163.9v0a27.526,27.526,0,0,0-4.145-10.28l3.785-3.785-7.5-7.5-3.727,3.727a27.531,27.531,0,0,0-10.336-4.329v-5.224h-10.6v5.224a27.53,27.53,0,0,0-10.336,4.329l-3.727-3.727-7.5,7.5,3.785,3.785a27.526,27.526,0,0,0-4.145,10.28v0h-5.466v10.6h5.571a27.541,27.541,0,0,0,4.276,10.042l-4.022,4.022,7.5,7.5,4.079-4.079a27.52,27.52,0,0,0,9.984,4.092v5.813h10.6v-5.813a27.52,27.52,0,0,0,9.984-4.092l4.079,4.079,7.5-7.5-4.022-4.022a27.542,27.542,0,0,0,4.276-10.042h5.571V163.9Zm-27.219,24.44a19.434,19.434,0,1,1,19.434-19.434,19.435,19.435,0,0,1-19.434,19.434" transform="translate(-239.287 -51.687)" fill="#012846"></path></g></g></g></svg>