<svg xmlns="http://www.w3.org/2000/svg" width="70.482" height="69.094" viewBox="0 0 70.482 69.094"><g id="_003-online-shop" data-name="003-online-shop" transform="translate(0 -5.04)"><g id="Group_231" data-name="Group 231" transform="translate(7.529 22.6)"><g id="Group_230" data-name="Group 230"><path id="Path_710" data-name="Path 710" d="M63.572,132.6H55.728a1.032,1.032,0,0,0-1.032,1.032v7.843a1.032,1.032,0,0,0,1.032,1.032h7.843a1.032,1.032,0,0,0,1.032-1.032v-7.843A1.032,1.032,0,0,0,63.572,132.6Zm-1.032,7.843H56.761v-5.778h5.778Z" transform="translate(-54.696 -132.602)" fill="#dc0f63"></path></g></g><g id="Group_233" data-name="Group 233" transform="translate(20.941 22.6)"><g id="Group_232" data-name="Group 232"><path id="Path_711" data-name="Path 711" d="M158.964,132.6H153.15a1.032,1.032,0,0,0,0,2.065h5.814a1.032,1.032,0,1,0,0-2.065Z" transform="translate(-152.118 -132.603)" fill="#dc0f63"></path></g></g><g id="Group_235" data-name="Group 235" transform="translate(7.529 37.508)"><g id="Group_234" data-name="Group 234"><path id="Path_712" data-name="Path 712" d="M63.572,240.9H55.728a1.032,1.032,0,0,0-1.032,1.032v7.843a1.032,1.032,0,0,0,1.032,1.032h7.843a1.032,1.032,0,0,0,1.032-1.032v-7.843A1.032,1.032,0,0,0,63.572,240.9Zm-1.032,7.843H56.761v-5.778h5.778Z" transform="translate(-54.696 -240.896)" fill="#dc0f63"></path></g></g><g id="Group_237" data-name="Group 237" transform="translate(20.941 37.508)"><g id="Group_236" data-name="Group 236"><path id="Path_713" data-name="Path 713" d="M158.964,240.9H153.15a1.032,1.032,0,0,0,0,2.065h5.814a1.032,1.032,0,1,0,0-2.065Z" transform="translate(-152.118 -240.896)" fill="#dc0f63"></path></g></g><g id="Group_239" data-name="Group 239" transform="translate(7.529 52.416)"><g id="Group_238" data-name="Group 238"><path id="Path_714" data-name="Path 714" d="M63.572,349.19H55.728a1.032,1.032,0,0,0-1.032,1.032v7.843a1.032,1.032,0,0,0,1.032,1.032h7.843a1.032,1.032,0,0,0,1.032-1.032v-7.843A1.032,1.032,0,0,0,63.572,349.19Zm-1.032,7.843H56.761v-5.778h5.778Z" transform="translate(-54.696 -349.19)" fill="#dc0f63"></path></g></g><g id="Group_241" data-name="Group 241" transform="translate(20.941 52.416)"><g id="Group_240" data-name="Group 240"><path id="Path_715" data-name="Path 715" d="M158.964,349.19H153.15a1.032,1.032,0,1,0,0,2.065h5.814a1.032,1.032,0,1,0,0-2.065Z" transform="translate(-152.118 -349.19)" fill="#dc0f63"></path></g></g><g id="Group_243" data-name="Group 243" transform="translate(20.941 60.259)"><g id="Group_242" data-name="Group 242"><path id="Path_716" data-name="Path 716" d="M169.69,406.166H153.15a1.032,1.032,0,0,0,0,2.065h16.54a1.032,1.032,0,0,0,0-2.065Z" transform="translate(-152.118 -406.166)" fill="#dc0f63"></path></g></g><g id="Group_245" data-name="Group 245" transform="translate(0 5.04)"><g id="Group_244" data-name="Group 244"><path id="Path_717" data-name="Path 717" d="M62.3,24.427V6.072A1.032,1.032,0,0,0,61.272,5.04H1.032A1.032,1.032,0,0,0,0,6.072V41.514a1.032,1.032,0,0,0,2.065,0v-26.7H42.629a1.032,1.032,0,1,0,0-2.065H2.065V7.1H60.24v5.641H46.988a1.032,1.032,0,1,0,0,2.065H60.24v8.264a20.234,20.234,0,0,0-24.513,3.448H21.973a1.032,1.032,0,1,0,0,2.065H33.959a20.34,20.34,0,0,0-1.232,1.857H21.973a1.032,1.032,0,1,0,0,2.065h9.694a20.152,20.152,0,0,0-1.724,8.176c0,.25.006.5.015.745H21.973a1.032,1.032,0,0,0,0,2.065h8.166q.131.943.347,1.857H21.973a1.032,1.032,0,0,0,0,2.065h9.121a20.348,20.348,0,0,0,6.255,8.921H21.973a1.032,1.032,0,1,0,0,2.065h16.54a1.032,1.032,0,0,0,.918-.562,20.231,20.231,0,0,0,20.809.454V72.069H2.065V46.021a1.032,1.032,0,1,0-2.065,0V73.1a1.032,1.032,0,0,0,1.032,1.032h60.24A1.032,1.032,0,0,0,62.3,73.1V56.942a20.25,20.25,0,0,0,0-32.515ZM50.212,58.889a18.2,18.2,0,1,1,18.2-18.2A18.225,18.225,0,0,1,50.212,58.889Z" transform="translate(0 -5.04)" fill="#dc0f63"></path></g></g><g id="Group_247" data-name="Group 247" transform="translate(36.074 26.545)"><g id="Group_246" data-name="Group 246"><path id="Path_718" data-name="Path 718" d="M288.45,168.356a1.032,1.032,0,0,0-1.79,1.03,12.085,12.085,0,1,1-2.542-3.09,1.032,1.032,0,1,0,1.357-1.557,14.115,14.115,0,1,0,2.974,3.616Z" transform="translate(-262.05 -161.262)" fill="#dc0f63"></path></g></g><g id="Group_249" data-name="Group 249" transform="translate(46.192 32.779)"><g id="Group_248" data-name="Group 248"><path id="Path_719" data-name="Path 719" d="M340.5,213.631h-1.693a1.186,1.186,0,1,1,0-2.372h2.744a.135.135,0,0,1,.135.135,1.032,1.032,0,0,0,2.065,0,2.2,2.2,0,0,0-2.2-2.2h-.865v-1.614a1.032,1.032,0,0,0-2.065,0v1.62a3.251,3.251,0,0,0,.186,6.5H340.5a1.186,1.186,0,0,1,0,2.372h-2.744a.135.135,0,0,1-.135-.135,1.032,1.032,0,1,0-2.065,0,2.2,2.2,0,0,0,2.2,2.2h.865v1.614a1.032,1.032,0,0,0,2.065,0v-1.62a3.251,3.251,0,0,0-.186-6.5Z" transform="translate(-335.555 -206.547)" fill="#dc0f63"></path></g></g><g id="Group_251" data-name="Group 251" transform="translate(23.895 8.893)"><g id="Group_250" data-name="Group 250"><path id="Path_720" data-name="Path 720" d="M175.917,33.027h-1.3a1.032,1.032,0,0,0,0,2.065h1.3a1.032,1.032,0,0,0,0-2.065Z" transform="translate(-173.583 -33.027)" fill="#dc0f63"></path></g></g><g id="Group_253" data-name="Group 253" transform="translate(29.469 8.893)"><g id="Group_252" data-name="Group 252"><path id="Path_721" data-name="Path 721" d="M216.406,33.027h-1.3a1.032,1.032,0,1,0,0,2.065h1.3a1.032,1.032,0,0,0,0-2.065Z" transform="translate(-214.071 -33.027)" fill="#dc0f63"></path></g></g><g id="Group_255" data-name="Group 255" transform="translate(35.043 8.893)"><g id="Group_254" data-name="Group 254"><path id="Path_722" data-name="Path 722" d="M256.894,33.027h-1.3a1.032,1.032,0,0,0,0,2.065h1.3a1.032,1.032,0,1,0,0-2.065Z" transform="translate(-254.559 -33.027)" fill="#dc0f63"></path></g></g></g></svg>