<svg xmlns="http://www.w3.org/2000/svg" id="layer1" width="69.138" height="69.136" viewBox="0 0 69.138 69.136"><path id="path3590" d="M11.779,298.649a10.385,10.385,0,0,1,16.4,8.448V329H7.438v-1.157a1.152,1.152,0,1,0-2.3,0v2.3a1.152,1.152,0,0,0,1.148,1.148H40.858v16.136H36.247V334.754a1.152,1.152,0,1,0-2.3,0v13.82a1.153,1.153,0,0,0,1.157,1.157h6.907a1.152,1.152,0,0,0,1.157-1.157V331.291H68.51a1.152,1.152,0,0,0,1.157-1.148V307.1a12.669,12.669,0,0,0-12.673-12.673h-9.22V282.9h8.064v4.609H51.226a1.152,1.152,0,1,0,0,2.3h5.768a1.152,1.152,0,0,0,1.148-1.157v-6.916a1.151,1.151,0,0,0-1.148-1.148H46.617a1.151,1.151,0,0,0-1.148,1.148v24.364a4.609,4.609,0,1,0,2.3,0v-9.387h9.22A10.326,10.326,0,0,1,67.362,307.1V329H30.488V307.1a12.649,12.649,0,0,0-5.408-10.375H42.006a1.152,1.152,0,1,0,0-2.3l-24.148,0a12.674,12.674,0,0,0-7.418,2.35,1.152,1.152,0,1,0,1.339,1.875Zm-8.025,2.687a3.15,3.15,0,0,0-3.225,3.038v16.969a3.15,3.15,0,0,0,3.225,3.038h21.2a1.152,1.152,0,1,0,0-2.3H4.832l9.1-7.708,1.98,1.674a1.153,1.153,0,0,0,1.49,0l1.978-1.674,4.6,3.891a1.153,1.153,0,1,0,1.49-1.76l-4.3-3.641,4.3-3.641a1.153,1.153,0,0,0-1.49-1.76l-7.321,6.2L4.828,303.641H22.654a1.152,1.152,0,1,0,0-2.3Zm-.92,3.637,9.324,7.89L2.834,320.75Zm46.088,5.581a2.306,2.306,0,1,1-2.3-2.3,2.287,2.287,0,0,1,2.3,2.3Z" transform="translate(-0.529 -280.596)" fill="#dc0f63"></path></svg>