<svg xmlns="http://www.w3.org/2000/svg" width="80.507" height="55.282" viewBox="0 0 80.507 55.282"><g id="_009-laptop" data-name="009-laptop" transform="translate(-4.557 -23.182)"><path id="Path_726" data-name="Path 726" d="M80.584,68.916V31.089A1.185,1.185,0,0,0,79.4,29.9H18.385A1.185,1.185,0,0,0,17.2,31.089V68.916A1.185,1.185,0,0,0,18.385,70.1H79.4a1.185,1.185,0,0,0,1.185-1.185Zm-2.37-1.185H19.57V32.271H78.213Z" transform="translate(-4.081 -2.17)" fill="#0e3e64"></path><path id="Path_727" data-name="Path 727" d="M83.879,70.114H81.056v-42.7a4.238,4.238,0,0,0-4.234-4.234H12.8a4.238,4.238,0,0,0-4.234,4.234v42.7H5.742A1.186,1.186,0,0,0,4.557,71.3v2.933a4.237,4.237,0,0,0,4.232,4.232H80.831a4.236,4.236,0,0,0,4.232-4.232V71.3a1.185,1.185,0,0,0-1.185-1.185Zm-72.944-42.7A1.865,1.865,0,0,1,12.8,25.552H76.822a1.865,1.865,0,0,1,1.864,1.864v42.7H53.711A1.185,1.185,0,0,0,52.526,71.3v.633H37.095V71.3a1.186,1.186,0,0,0-1.185-1.185H10.935ZM82.694,74.232a1.864,1.864,0,0,1-1.862,1.862H8.789a1.865,1.865,0,0,1-1.862-1.862V72.484h27.8v.633A1.185,1.185,0,0,0,35.91,74.3h17.8A1.185,1.185,0,0,0,54.9,73.117v-.633h27.8Z" fill="#0e3e64"></path></g></svg>