<svg xmlns="http://www.w3.org/2000/svg" id="_005-print" data-name="005-print" width="81.336" height="69.136" viewBox="0 0 81.336 69.136"><path id="Path_728" data-name="Path 728" d="M78.625,5.422H73.2V1.356A1.356,1.356,0,0,0,71.847,0H54.224A1.355,1.355,0,0,0,53.14.542l-3.66,4.88H2.711A2.711,2.711,0,0,0,0,8.134V27.112a2.7,2.7,0,0,0,1.356,2.335V67.78a1.356,1.356,0,0,0,1.356,1.356H8.134A1.356,1.356,0,0,0,9.489,67.78V29.823h8.134V56.935H13.556A1.356,1.356,0,0,0,12.2,58.291c0,2.346,0,9.489,6.778,9.489H58.291a5.423,5.423,0,0,0,5.422-5.422V29.823h8.134V67.78A1.356,1.356,0,0,0,73.2,69.136h5.422a1.356,1.356,0,0,0,1.356-1.356V29.447a2.7,2.7,0,0,0,1.356-2.335V8.134A2.711,2.711,0,0,0,78.625,5.422Zm0,2.711V27.112H73.2V8.134ZM47.446,29.823A6.778,6.778,0,1,1,36.6,24.4h8.134A6.763,6.763,0,0,1,47.446,29.823ZM45.16,21.69H17.623a1.356,1.356,0,0,1,0-2.711h46.09a1.356,1.356,0,1,1,0,2.711ZM20.334,35.481A4.077,4.077,0,0,1,22.9,38.3a1.355,1.355,0,0,0,1.311,1.015h2.9a1.356,1.356,0,0,1,0,2.711H20.334ZM10.845,8.134H48.8v8.134H10.845Zm59.646,8.134H51.513V8.134H70.491Zm-3.768,6.778a3.943,3.943,0,0,0,.813-4.067h2.955v8.134H67.533a3.953,3.953,0,0,0-.813-4.067ZM54.9,2.711H70.491V5.422H52.868ZM2.711,8.134H8.134V27.112H2.711ZM6.778,66.425H4.067v-36.6H6.778Zm4.067-47.446h2.961a3.939,3.939,0,0,0,.813,4.067,3.931,3.931,0,0,0-.813,4.067H10.845Zm5.422,6.778a1.322,1.322,0,0,1,.416-.966,1.3,1.3,0,0,1,.939-.389v2.711A1.356,1.356,0,0,1,16.267,25.756Zm4.067,18.978h6.778a4.067,4.067,0,1,0,0-8.134H25.171a6.764,6.764,0,0,0-4.837-3.913V24.4h12.55a9.489,9.489,0,1,0,15.568,0H61V43.837L53.889,35.7a1.417,1.417,0,0,0-1.061-.458,1.354,1.354,0,0,0-1.032.528L42.261,48.124l-4.609-5.6a1.267,1.267,0,0,0-1.071-.494,1.357,1.357,0,0,0-1.05.533L24.537,56.935h-4.2Zm25.676,12.2H27.943l8.7-11.376ZM29.823,65.069H18.978c-2.231,0-3.781-.962-4.032-5.422H51.513V61.68a6.069,6.069,0,0,0,1.03,3.389Zm28.468,0h-.678a3.389,3.389,0,0,1-3.389-3.389V58.291a1.356,1.356,0,0,0-1.356-1.356H49.521l-5.493-6.669,8.9-11.532L61,47.956v14.4A2.711,2.711,0,0,1,58.291,65.069ZM63.713,24.4a1.356,1.356,0,0,1,1.356,1.356,1.322,1.322,0,0,1-.416.966,1.3,1.3,0,0,1-.939.389ZM77.269,66.425H74.558v-36.6h2.711Zm0,0" fill="#0e3e64"></path><path id="Path_729" data-name="Path 729" d="M96,64h2.711v2.711H96Zm0,0" transform="translate(-79.733 -53.155)" fill="#0e3e64"></path><path id="Path_730" data-name="Path 730" d="M128,64h2.711v2.711H128Zm0,0" transform="translate(-106.31 -53.155)" fill="#0e3e64"></path><path id="Path_731" data-name="Path 731" d="M160,64h2.711v2.711H160Zm0,0" transform="translate(-132.888 -53.155)" fill="#0e3e64"></path><path id="Path_732" data-name="Path 732" d="M392,208h2.711v2.711H392Zm0,0" transform="translate(-325.575 -172.754)" fill="#0e3e64"></path><path id="Path_733" data-name="Path 733" d="M392,240h2.711v8.134H392Zm0,0" transform="translate(-325.575 -199.332)" fill="#0e3e64"></path><path id="Path_734" data-name="Path 734" d="M320,64h13.556v2.711H320Zm0,0" transform="translate(-265.776 -53.155)" fill="#0e3e64"></path></svg>