<svg xmlns="http://www.w3.org/2000/svg" width="73.565" height="69.609" viewBox="0 0 73.565 69.609"><g id="_002-creative-design" data-name="002-creative-design" transform="translate(0 -13.769)"><path id="Path_723" data-name="Path 723" d="M68.887,13.769H13.227v2.155h55.66a2.526,2.526,0,0,1,2.523,2.523V55.486H61.568V32.3l-4.2-6.87c-.1.134.237-.389-4.195,6.87V55.486H48.252V32.338H37.13V55.486H32.318L30.944,37.469c3.208-2.547,3-7.249.183-10.017a14.343,14.343,0,0,1-2.777-4.425l-.358-.95-.97.3a8.329,8.329,0,0,0-5.493,5.914,14.1,14.1,0,0,0-.6,4.207,6.156,6.156,0,0,0,2.433,5.039L21.994,55.486H16.459V36.942h-.84l1.772-4.779-5.543-7.448L6.306,32.163l1.772,4.779H7.562V55.486H2.155V18.447a2.526,2.526,0,0,1,2.523-2.523h6.394V13.769H4.678A4.684,4.684,0,0,0,0,18.447V63.531a4.684,4.684,0,0,0,4.678,4.678H27.651L26.292,75H18.909v8.377H54.657V75H47.274l-1.359-6.791H60.338V66.054H4.678a2.526,2.526,0,0,1-2.523-2.523v-5.89H71.41v5.89a2.526,2.526,0,0,1-2.523,2.523H62.493v2.155h6.394a4.684,4.684,0,0,0,4.678-4.678V18.447a4.684,4.684,0,0,0-4.678-4.678Zm-58.116,16v2.5h2.155v-2.5l2.038,2.738-1.643,4.43H10.376l-1.643-4.43ZM9.717,39.1H14.3v6.627H9.717ZM14.3,47.879v7.606H9.717V47.879ZM52.5,77.156v4.067H21.064V77.156ZM45.076,75H28.49l1.359-6.791H43.717ZM23.606,28.868a6.417,6.417,0,0,1,3.164-4.074,15.239,15.239,0,0,0,2.846,4.195,5,5,0,0,1,1.519,3.7,4.025,4.025,0,1,1-8.048-.2,12.016,12.016,0,0,1,.52-3.616ZM25.428,38.8h3.456l1.272,16.683h-6ZM39.286,53.244h3.963V51.089H39.286V48.574H42V46.419H39.286V43.9h3.963V41.748H39.286V39.234H42V37.078H39.286V34.493H46.1V55.486H39.286ZM55.333,32.911l2.039-3.34,2.04,3.341v1.806a3.931,3.931,0,0,1-4.079,0Zm0,4.177a6.058,6.058,0,0,0,4.08,0v18.4h-4.08Z" fill="#0e3e64"></path><path id="Path_724" data-name="Path 724" d="M248.5,340.887h2.155v2.155H248.5Z" transform="translate(-212.795 -280.117)" fill="#0e3e64"></path><path id="Path_725" data-name="Path 725" d="M462.435,125.525H460.28V115.63h2.155Zm0-12.05H460.28v-2.155h2.155Zm0-4.31H460.28v-2.155h2.155Z" transform="translate(-394.146 -79.843)" fill="#0e3e64"></path></g></svg>