<svg xmlns="http://www.w3.org/2000/svg" xmlns:xlink="http://www.w3.org/1999/xlink" width="27.682" height="27.682" viewBox="0 0 27.682 27.682"><defs><clipPath id="clip-path"><rect id="Rectangle_41" data-name="Rectangle 41" width="27.682" height="27.682" fill="#3cb29c"/></clipPath></defs><g id="Group_56" data-name="Group 56" clip-path="url(#clip-path)"><path id="Path_250" data-name="Path 250" d="M12.166,0A12.166,12.166,0,1,0,24.332,12.166,12.166,12.166,0,0,0,12.166,0m5.692,8.282-5.594,8.982a1.118,1.118,0,0,1-.9.525h-.051a1.117,1.117,0,0,1-.89-.443l-2.863-3.78a1.117,1.117,0,0,1,1.781-1.348L11.226,14.7l4.735-7.6a1.117,1.117,0,1,1,1.9,1.181" transform="translate(1.675 1.675)" fill="#3cb29c"/></g></svg>